{"title":"The.Whispering.Star.2015.720p.BRRip.x264.AC3.HORiZON-ArtSubs ","magnet":"magnet:?xt=urn:btih:8ed303270814ccd0d968f92deb7bbf79e82ed82d&dn=The.Whispering.Star.2015.720p.BRRip.x264.AC3.HORiZON-ArtSubs+&tr=udp%3A%2F%2Ftracker.leechers-paradise.org%3A6969&tr=udp%3A%2F%2Fzer0day.ch%3A1337&tr=udp%3A%2F%2Fopen.demonii.com%3A1337&tr=udp%3A%2F%2Ftracker.coppersurfer.tk%3A6969&tr=udp%3A%2F%2Fexodus.desync.com%3A6969","uploader":"lletaif","categoryP":"video","categoryS":"movies","size":"1670799631","seeders":"0","leechers":"0","description":"Release: The.Whispering.Star.2015.720p.BRRip.x264.AC3.HORiZON-ArtSubs \r\n\r\nIMDB: http://www.imdb.com/title/tt4957538/ \r\n\r\nSubtitle: English \r\n\r\nPlot: A feminine android delivers packages to the scattered humans in the galaxy. With years to spare the android and us have time to contemplate what it is to be human. \r\n\r\nComplete name : The.Whispering.Star.2015.720p.BRRip.x264.AC3.HORiZON-ArtSubs \r\nFormat : Matroska \r\nFormat version : Version 2 \r\nFile size : 1.56 GiB \r\nDuration : 1h 41mn \r\nOverall bit rate : 2 192 Kbps \r\nWriting application : HandBrake 0.9.5 \r\nWriting library : libmkv 0.6.4.1 \r\n\r\nVideo \r\nID : 1 \r\nFormat : AVC \r\nFormat/Info : Advanced Video Codec \r\nFormat profile : <a class=\"__cf_email__\" href=\"/cdn-cgi/l/email-protection\" data-cfemail=\"6e260709062e225d405f\">[email&#xA0;protected]</a><script data-cfhash=\"f9e31\" type=\"text/javascript\">/* <![CDATA[ */!function(t,e,r,n,c,a,p){try{t=document.currentScript||function(){for(t=document.getElementsByTagName('script'),e=t.length;e--;)if(t[e].getAttribute('data-cfhash'))return t[e]}();if(t&&(c=t.previousSibling)){p=t.parentNode;if(a=c.getAttribute('data-cfemail')){for(e='',r='0x'+a.substr(0,2)|0,n=2;a.length-n;n+=2)e+='%'+('0'+('0x'+a.substr(n,2)^r).toString(16)).slice(-2);p.replaceChild(document.createTextNode(decodeURIComponent(e)),c)}p.removeChild(t)}}catch(u){}}()/* ]]> */</script> \r\nFormat settings, CABAC : Yes \r\nFormat settings, ReFrames : 4 frames \r\nCodec ID : V_MPEG4/ISO/AVC \r\nDuration : 1h 41mn \r\nBit rate : 1 750 Kbps \r\nWidth : 1 280 pixels \r\nHeight : 688 pixels \r\nDisplay aspect ratio : 1.85:1 \r\nOriginal display aspect ratio : 1.85:1 \r\nFrame rate mode : Constant \r\nFrame rate : 23.976 fps \r\nColor space : YUV \r\nChroma subsampling : 4:2:0 \r\nBit depth : 8 bits \r\nScan type : Progressive \r\nBits/(Pixel*Frame) : 0.083 \r\nStream size : 1.21 GiB (78%) \r\nWriting library : x264 core 112 \r\nLanguage : English \r\nDefault : Yes \r\nForced : No \r\n\r\nAudio \r\nID : 2 \r\nFormat : AC-3 \r\nFormat/Info : Audio Coding 3 \r\nMode extension : CM (complete main) \r\nFormat settings, Endianness : Big \r\nCodec ID : A_AC3 \r\nDuration : 1h 41mn \r\nBit rate mode : Constant \r\nBit rate : 448 Kbps \r\nChannel count : 6 channels \r\nChannel positions : Front: L C R, Side: L R, LFE \r\nSampling rate : 48.0 KHz \r\nBit depth : 16 bits \r\nCompression mode : Lossy \r\nStream size : 326 MiB (20%) \r\nLanguage : Japanese \r\nDefault : Yes \r\nForced : No \r\n\r\nText \r\nID : 3 \r\nFormat : UTF-8 \r\nCodec ID : S_TEXT/UTF8 \r\nCodec ID/Info : UTF-8 Plain Text \r\nLanguage : English \r\nDefault : No \r\nForced : No","last_updated":"2017-07-26T12:00:59.113Z","parsed":{"xt":"urn:btih:8ed303270814ccd0d968f92deb7bbf79e82ed82d","dn":"The.Whispering.Star.2015.720p.BRRip.x264.AC3.HORiZON-ArtSubs ","tr":["udp://exodus.desync.com:6969","udp://open.demonii.com:1337","udp://tracker.coppersurfer.tk:6969","udp://tracker.leechers-paradise.org:6969","udp://zer0day.ch:1337"],"infoHash":"8ed303270814ccd0d968f92deb7bbf79e82ed82d","infoHashBuffer":{"type":"Buffer","data":[142,211,3,39,8,20,204,208,217,104,249,45,235,123,191,121,232,46,216,45]},"name":"The.Whispering.Star.2015.720p.BRRip.x264.AC3.HORiZON-ArtSubs ","announce":["udp://exodus.desync.com:6969","udp://open.demonii.com:1337","udp://tracker.coppersurfer.tk:6969","udp://tracker.leechers-paradise.org:6969","udp://zer0day.ch:1337"],"urlList":[]}}